<svg xmlns="http://www.w3.org/2000/svg" viewBox="0 0 600 430" class="svg-logo" width="600"
    height="430" style="height: auto;">
    <rect rx="0" ry="0" width="100%" height="100%" fill="rgba(255, 255, 255, 1)"></rect>
    <g data-element="wrapper"
        transform="translate(-638.954330444338 -451.5000000000015) scale(3.1000000000000068)">
        <g>
            <g data-element="icon"
                transform="scale(0.08575715847970854) translate(3288.3562436632733 2207.078917164305)">
                <path id="color_x5F_2_10_" fill="rgba(29, 104, 175, 1)"
                    d="M101.541,386.907c0,0-38.264,6.994-42.038,6.994C26.691,393.901,0,367.161,0,334.301    V118.515c0-28.982,20.72-53.663,49.264-58.681c0,0,288.48-50.412,291.943-50.412c32.806,0,59.496,26.732,59.496,59.593v21.708    l-38.264-7.387c0,0,1.894-39.003-25.006-35.317L55.893,97.521c-10.216,1.794-17.63,10.624-17.63,20.993v215.786    c0,13.131,12.238,23.452,25.346,20.94l74.441-14.325L101.541,386.907z M362.439,179.435v100.729    c0,10.201-7.271,19.005-17.289,20.934l-152.162,29.257L99.721,455.488l-1.727,63.532l116.623-153.854l137.76-26.493    c28.003-5.382,48.326-29.991,48.326-58.509v-92.053L362.439,179.435z"></path>
                <path id="color_x5F_1_38_" fill="rgba(53, 94, 213, 1)"
                    d="M600,212.5v183.65c0,17.81-6.973,34.482-19.637,46.948    c-12.447,12.256-31.363,23.234-57.847,17.957l-38.392-47.838c0,0,47.983,10.638,50.042,10.622    c21.5-0.173,27.569-20.217,27.569-27.689V212.5c0-13.213-9.413-24.632-22.383-27.159c0,0-278.421-53.999-280.203-53.999    c-15.201,0-27.566,12.417-27.566,27.678v128.7l-38.263,6.356V159.021c0-36.358,29.53-65.941,65.829-65.941    c4.23,0,287.512,54.705,287.512,54.705C577.568,153.801,600,181.015,600,212.5z M434.419,401.958l-105.505-23.88l-89.735,18.676    c1.803,0.57,172.596,39.313,172.596,39.313l110.591,154.512V528.67L434.419,401.958z"></path>
            </g>
            <text transform="translate(348 215)" fill="rgba(29, 104, 175, 1)"
                font-family="JP Sawarabi Gothic" font-size="64" data-element="company-name"></text>
        </g>
    </g>
</svg>